<?xml version="1.0" encoding="UTF-8" standalone="no"?><!DOCTYPE svg PUBLIC "-//W3C//DTD SVG 1.1//EN" "http://www.w3.org/Graphics/SVG/1.1/DTD/svg11.dtd">
<svg width="100%" height="100%" viewBox="0 0 600 600" version="1.1" xmlns="http://www.w3.org/2000/svg" xmlns:xlink="http://www.w3.org/1999/xlink" xml:space="preserve" xmlns:serif="http://www.serif.com/" style="fill-rule:evenodd;clip-rule:evenodd;">

    <path id="TopLane" d="M43,0l0,-1l469,0l0,50l-463,0l0,462l-50,0l0,-511l44,0Zm6,49l0,-49l-6,0l0,49l6,0Z" style="fill:#fea;"/>
    <path id="BotLane" d="M601,90l0,512l-50,0l0,-1l2,0l0,-50l-2,0l0,50l-461,0l0,-50l461,0l0,-461l50,0Z" style="fill:#fea;"/>
    <path id="MidLane" d="M549,86.758l-36.887,-36.758l-461.005,462.621l36.887,36.758l461.005,-462.621Z" style="fill:#fea;"/>
    <path id="jungle" d="M510,50l-460,0l0,460m500,-420l0,460l-460,0"
          style="fill:#8b4;fill-rule:nonzero;stroke:#000;stroke-width:1px;"/>
</svg>