<?xml version="1.0" encoding="UTF-8" standalone="no"?>
<!DOCTYPE svg PUBLIC "-//W3C//DTD SVG 1.1//EN" "http://www.w3.org/Graphics/SVG/1.1/DTD/svg11.dtd">
<svg width="100%" height="100%" viewBox="0 0 600 600" version="1.1" xmlns="http://www.w3.org/2000/svg" xmlns:xlink="http://www.w3.org/1999/xlink" xml:space="preserve" xmlns:serif="http://www.serif.com/" style="fill-rule:evenodd;clip-rule:evenodd;">

    <path id="TopLane" d="M43,0l0,-1l469,0l0,50l-463,0l0,462l-50,0l0,-511l44,0Z"/>
    <path id="BotLane" d="M557.801,605.161l0,1.133l-449.801,0l0,-56.645l444.047,0l0,-523.401l47.953,0l0,578.913l-42.199,0Z"/>
    <path id="MidLane" d="M549,86.758l-36.887,-36.758l-461.005,462.621l36.887,36.758l461.005,-462.621Z"/>
    <path id="Jungle" d="M510,50l-460,0l0,460m500,-420l0,460l-460,0"/>


    <g id="Base2"><circle cx="0" cy="600" r="120" style="fill:#aaf;"/>
        <circle cx="0" cy="600" r="50" style="fill:#66e;"/></g><g id="Base1">
    <circle cx="600" cy="0" r="120" style="fill:#faa;"/>
    <circle cx="600" cy="0" r="50" style="fill:#e66;"/></g>
    <path id="divide" d="M0,0l600,600" style="fill-rule:nonzero;stroke:#000;stroke-width:6px;stroke-dasharray:5,5;"/>










    <g><g><g><g transform="matrix(-3.82857e-16,1,-1,-3.82857e-16,147.289,115.289)"><text x="16px" y="131.289px" style="font-family:'ArialMT', 'Arial', sans-serif;font-size:30px;fill:#339;">T</text></g><g transform="matrix(-3.82857e-16,1,-1,-3.82857e-16,162.289,130.289)"><text x="16px" y="146.289px" style="font-family:'ArialMT', 'Arial', sans-serif;font-size:30px;fill:#339;">op lane</text></g>
    </g><text x="333.954px" y="586px" style="font-family:'ArialMT', 'Arial', sans-serif;font-size:30px;fill:#339;">Bottom lane</text>
        <g transform="matrix(0.707107,-0.707107,0.707107,0.707107,-226.822,266.891)">
            <text x="208.755px" y="407.244px" style="font-family:'ArialMT', 'Arial', sans-serif;font-size:30px;fill:#339;">Middle</text>
        </g><g><g><text x="110.811px" y="280px" style="font-family:'ArialMT', 'Arial', sans-serif;font-size:30px;fill:#339;">T</text>
            <text x="125.811px" y="280px" style="font-family:'ArialMT', 'Arial', sans-serif;font-size:30px;fill:#339;">eam 1</text>
        </g><text x="94.946px" y="310px" style="font-family:'ArialMT', 'Arial', sans-serif;font-size:30px;fill:#339;">top jungle</text>
        </g><g><g><text x="260.811px" y="460px" style="font-family:'ArialMT', 'Arial', sans-serif;font-size:30px;fill:#339;">T</text>
            <text x="275.811px" y="460px" style="font-family:'ArialMT', 'Arial', sans-serif;font-size:30px;fill:#339;">eam 1</text></g>
            <text x="219.941px" y="490px" style="font-family:'ArialMT', 'Arial', sans-serif;font-size:30px;fill:#339;">bottom jungle</text></g></g><g><g>

    </g><g transform="matrix(-3.82857e-16,1,-1,-3.82857e-16,897.954,-234.046)"><text x="566px" y="331.954px" style="font-family:'ArialMT', 'Arial', sans-serif;font-size:30px;fill:#933;">Bottom lane</text></g><g transform="matrix(0.707107,-0.707107,0.707107,0.707107,-87.6307,324.547)"><text x="347.947px" y="268.053px" style="font-family:'ArialMT', 'Arial', sans-serif;font-size:30px;fill:#933;">lane</text></g><g><g><text x="240.811px" y="140px" style="font-family:'ArialMT', 'Arial', sans-serif;font-size:30px;fill:#933;">T</text><text x="255.811px" y="140px" style="font-family:'ArialMT', 'Arial', sans-serif;font-size:30px;fill:#933;">eam 2</text></g><text x="224.946px" y="170px" style="font-family:'ArialMT', 'Arial', sans-serif;font-size:30px;fill:#933;">top jungle</text></g><g><g><text x="390.811px" y="300px" style="font-family:'ArialMT', 'Arial', sans-serif;font-size:30px;fill:#933;">T</text><text x="405.811px" y="300px" style="font-family:'ArialMT', 'Arial', sans-serif;font-size:30px;fill:#933;">eam 2</text></g>
        <text x="349.941px" y="330px" style="font-family:'ArialMT', 'Arial', sans-serif;font-size:30px;fill:#933;">bottom jungle</text></g></g></g></svg>