<?xml version="1.0" encoding="UTF-8" standalone="no"?><!DOCTYPE svg PUBLIC "-//W3C//DTD SVG 1.1//EN" "http://www.w3.org/Graphics/SVG/1.1/DTD/svg11.dtd"><svg width="100%" height="100%" viewBox="0 0 800 800" version="1.1" xmlns="http://www.w3.org/2000/svg" xmlns:xlink="http://www.w3.org/1999/xlink" xml:space="preserve" xmlns:serif="http://www.serif.com/" style="fill-rule:evenodd;clip-rule:evenodd;"><path id="TopLane" d="M57.333,0l0,-1.333l625.334,0l0,66.666l-617.334,0l0,616l-66.666,0l0,-681.333l58.666,0Z"/><path id="BotLane" d="M743.735,806.881l0,1.511l-599.735,0l0,-75.527l592.063,0l0,-697.868l63.937,0l0,771.884l-56.265,0Z"/><path id="MidLane" d="M732,115.677l-49.183,-49.01l-614.673,616.828l49.183,49.01l614.673,-616.828Z"/><path id="Jungle" d="M680,66.667l-613.333,0l0,613.333m666.666,-560l0,613.333l-613.333,0"/><g id="Base2"><path d="M160,800c0,-88.366 -71.634,-160 -160,-160l0,160l160,0Z" style="fill:#aaf;"/><path d="M66.667,800c0,-36.819 -29.848,-66.667 -66.667,-66.667l0,66.667l66.667,0Z" style="fill:#66e;"/></g><g id="Base1"><path d="M640,0c0,88.366 71.634,160 160,160l0,-160l-160,0Z" style="fill:#faa;"/><path d="M733.333,0c0,36.819 29.848,66.667 66.667,66.667l0,-66.667l-66.667,0Z" style="fill:#e66;"/></g><path id="divide" d="M0,0l800,800" style="fill-rule:nonzero;stroke:#000;stroke-width:8px;stroke-dasharray:6.67,6.67;"/><g><g><g><g transform="matrix(-3.82857e-16,1,-1,-3.82857e-16,196.385,153.719)"><text x="21.333px" y="175.052px" style="font-family:'ArialMT', 'Arial', sans-serif;font-size:40px;fill:#339;">T</text></g><g transform="matrix(-3.82857e-16,1,-1,-3.82857e-16,216.385,173.719)"><text x="21.333px" y="195.052px" style="font-family:'ArialMT', 'Arial', sans-serif;font-size:40px;fill:#339;">op lane</text></g></g><text x="445.272px" y="781.333px" style="font-family:'ArialMT', 'Arial', sans-serif;font-size:40px;fill:#339;">Bottom lane</text><g transform="matrix(0.707107,-0.707107,0.707107,0.707107,-302.429,355.855)"><text x="278.34px" y="542.992px" style="font-family:'ArialMT', 'Arial', sans-serif;font-size:40px;fill:#339;">Middle</text></g><g><g><text x="147.748px" y="373.333px" style="font-family:'ArialMT', 'Arial', sans-serif;font-size:40px;fill:#339;">T</text><text x="167.748px" y="373.333px" style="font-family:'ArialMT', 'Arial', sans-serif;font-size:40px;fill:#339;">eam 1</text></g><text x="126.595px" y="413.333px" style="font-family:'ArialMT', 'Arial', sans-serif;font-size:40px;fill:#339;">top jungle</text></g><g><g><text x="347.748px" y="613.333px" style="font-family:'ArialMT', 'Arial', sans-serif;font-size:40px;fill:#339;">T</text><text x="367.748px" y="613.333px" style="font-family:'ArialMT', 'Arial', sans-serif;font-size:40px;fill:#339;">eam 1</text></g><text x="293.255px" y="653.333px" style="font-family:'ArialMT', 'Arial', sans-serif;font-size:40px;fill:#339;">bottom jungle</text></g></g><g><g transform="matrix(-3.82857e-16,1,-1,-3.82857e-16,1197.27,-312.061)"><text x="754.667px" y="442.605px" style="font-family:'ArialMT', 'Arial', sans-serif;font-size:40px;fill:#933;">Bottom lane</text></g><g transform="matrix(0.707107,-0.707107,0.707107,0.707107,-116.841,432.729)"><text x="463.93px" y="357.405px" style="font-family:'ArialMT', 'Arial', sans-serif;font-size:40px;fill:#933;">lane</text></g><g><g><text x="321.081px" y="186.667px" style="font-family:'ArialMT', 'Arial', sans-serif;font-size:40px;fill:#933;">T</text><text x="341.081px" y="186.667px" style="font-family:'ArialMT', 'Arial', sans-serif;font-size:40px;fill:#933;">eam 2</text></g><text x="299.928px" y="226.667px" style="font-family:'ArialMT', 'Arial', sans-serif;font-size:40px;fill:#933;">top jungle</text></g><g><g><text x="521.081px" y="400px" style="font-family:'ArialMT', 'Arial', sans-serif;font-size:40px;fill:#933;">T</text><text x="541.081px" y="400px" style="font-family:'ArialMT', 'Arial', sans-serif;font-size:40px;fill:#933;">eam 2</text></g><text x="466.588px" y="440px" style="font-family:'ArialMT', 'Arial', sans-serif;font-size:40px;fill:#933;">bottom jungle</text></g></g></g></svg>