<?xml version="1.0" encoding="UTF-8" standalone="no"?>
<!DOCTYPE svg PUBLIC "-//W3C//DTD SVG 1.1//EN" "http://www.w3.org/Graphics/SVG/1.1/DTD/svg11.dtd">

<svg width="100%" height="100%" viewBox="0 0 600 600" version="1.1" xmlns="http://www.w3.org/2000/svg" xmlns:xlink="http://www.w3.org/1999/xlink" xml:space="preserve" xmlns:serif="http://www.serif.com/" style="fill-rule:evenodd;clip-rule:evenodd;">

    <g id="TopLane">
        <rect x="-1" y="0" width="50" height="511" style="fill:#fea;"/>
        <path d="M512,49l0,-50l-469,0l0,50l469,0Z" style="fill:#fea;"/>
    </g>

    <g id="BotLane">
        <path d="M553,601l0,-50l-463,0l0,50l463,0Z" style="fill:#fea;"/>
        <rect x="551" y="90" width="50" height="512" style="fill:#fea;"/></g>

    <path id="MidLane" d="M549,86.758l-36.887,-36.758l-461.005,462.621l36.887,36.758l461.005,-462.621Z"
          style="fill:#fea;"/>

    <path id="jungle" d="M510,50l-460,0l0,460m500,-420l0,460l-460,0"
          style="fill:#8b4;fill-rule:nonzero;stroke:#000;stroke-width:1px;"/>



    <g id="Base2"><circle cx="0" cy="600" r="120" style="fill:#aaf;"/><circle cx="0" cy="600" r="50" style="fill:#66e;"/></g><g id="Base1"><circle cx="600" cy="0" r="120" style="fill:#faa;"/><circle cx="600" cy="0" r="50" style="fill:#e66;"/></g><path id="divide" d="M0,0l600,600" style="fill-rule:nonzero;stroke:#000;stroke-width:6px;stroke-dasharray:5,5;"/>
    <g><g><g transform="matrix(-3.82857e-16,1,-1,-3.82857e-16,204,172)"><text x="-40.711px" y="188px" style="font-family:'ArialMT', 'Arial', sans-serif;font-size:30px;fill:#339;">T<tspan x="-25.711px -9.027px " y="188px 188px ">op</tspan> lane</text></g><text x="333.954px" y="586px" style="font-family:'ArialMT', 'Arial', sans-serif;font-size:30px;fill:#339;">Bottom lane</text><g transform="matrix(0.707107,-0.707107,0.707107,0.707107,-195.578,279.833)"><text x="195.813px" y="376px" style="font-family:'ArialMT', 'Arial', sans-serif;font-size:30px;fill:#339;">Middle</text></g><g><text x="110.811px" y="280px" style="font-family:'ArialMT', 'Arial', sans-serif;font-size:30px;fill:#339;">T<tspan x="125.811px 142.495px " y="280px 280px ">ea</tspan>m 1</text><text x="94.946px" y="310px" style="font-family:'ArialMT', 'Arial', sans-serif;font-size:30px;fill:#339;">top jungle</text></g><g><text x="260.811px" y="460px" style="font-family:'ArialMT', 'Arial', sans-serif;font-size:30px;fill:#339;">T<tspan x="275.811px 292.495px " y="460px 460px ">ea</tspan>m 1</text><text x="219.941px" y="490px" style="font-family:'ArialMT', 'Arial', sans-serif;font-size:30px;fill:#339;">bottom jungle</text></g></g><g><text x="129.289px" y="34px" style="font-family:'ArialMT', 'Arial', sans-serif;font-size:30px;fill:#933;">T<tspan x="144.289px 160.973px " y="34px 34px ">op</tspan> lane</text><g transform="matrix(-3.82857e-16,1,-1,-3.82857e-16,978,-154)"><text x="485.954px" y="412px" style="font-family:'ArialMT', 'Arial', sans-serif;font-size:30px;fill:#933;">Bottom lane</text></g><g transform="matrix(0.707107,-0.707107,0.707107,0.707107,-67.5778,332.853)"><text x="339.641px" y="248px" style="font-family:'ArialMT', 'Arial', sans-serif;font-size:30px;fill:#933;">lane</text></g><g><text x="240.811px" y="140px" style="font-family:'ArialMT', 'Arial', sans-serif;font-size:30px;fill:#933;">T<tspan x="255.811px 272.495px " y="140px 140px ">ea</tspan>m 2</text><text x="224.946px" y="170px" style="font-family:'ArialMT', 'Arial', sans-serif;font-size:30px;fill:#933;">top jungle</text></g><g><text x="390.811px" y="300px" style="font-family:'ArialMT', 'Arial', sans-serif;font-size:30px;fill:#933;">T<tspan x="405.811px 422.495px " y="300px 300px ">ea</tspan>m 2</text><text x="349.941px" y="330px" style="font-family:'ArialMT', 'Arial', sans-serif;font-size:30px;fill:#933;">bottom jungle</text></g></g></g></svg>